<mxfile host="app.diagrams.net" modified="2023-09-19T11:05:47.930Z" agent="Mozilla/5.0 (Macintosh; Intel Mac OS X 10_15_7) AppleWebKit/605.1.15 (KHTML, like Gecko) Version/17.0 Safari/605.1.15" etag="z-XLyf0M5X1vI_w-5WSe" version="21.7.5" type="google">
  <diagram name="Page-1" id="B4tlnSgJELug9rKSYek3">
    <mxGraphModel grid="1" page="1" gridSize="10" guides="1" tooltips="1" connect="1" arrows="1" fold="1" pageScale="1" pageWidth="827" pageHeight="1169" math="0" shadow="0">
      <root>
        <mxCell id="0" />
        <mxCell id="1" parent="0" />
        <mxCell id="kORwje1YK65I4W1ww44p-6" value="" style="edgeStyle=orthogonalEdgeStyle;rounded=0;orthogonalLoop=1;jettySize=auto;html=1;" edge="1" parent="1" source="kORwje1YK65I4W1ww44p-1" target="kORwje1YK65I4W1ww44p-2">
          <mxGeometry relative="1" as="geometry" />
        </mxCell>
        <mxCell id="kORwje1YK65I4W1ww44p-1" value="displayCraftingRecepies() &lt;br&gt;start" style="ellipse;whiteSpace=wrap;html=1;" vertex="1" parent="1">
          <mxGeometry x="351" y="220" width="160" height="80" as="geometry" />
        </mxCell>
        <mxCell id="kORwje1YK65I4W1ww44p-7" value="" style="edgeStyle=orthogonalEdgeStyle;rounded=0;orthogonalLoop=1;jettySize=auto;html=1;" edge="1" parent="1" source="kORwje1YK65I4W1ww44p-2" target="kORwje1YK65I4W1ww44p-3">
          <mxGeometry relative="1" as="geometry" />
        </mxCell>
        <mxCell id="kORwje1YK65I4W1ww44p-2" value="print &quot;Crafting Recipes:&quot;" style="strokeWidth=2;html=1;shape=mxgraph.flowchart.document2;whiteSpace=wrap;size=0.25;" vertex="1" parent="1">
          <mxGeometry x="351" y="330" width="159" height="60" as="geometry" />
        </mxCell>
        <mxCell id="kORwje1YK65I4W1ww44p-8" value="" style="edgeStyle=orthogonalEdgeStyle;rounded=0;orthogonalLoop=1;jettySize=auto;html=1;" edge="1" parent="1" source="kORwje1YK65I4W1ww44p-3" target="kORwje1YK65I4W1ww44p-4">
          <mxGeometry relative="1" as="geometry" />
        </mxCell>
        <mxCell id="kORwje1YK65I4W1ww44p-3" value="print&amp;nbsp;&quot;1. Craft Wooden Planks: 2 Wood&quot;" style="strokeWidth=2;html=1;shape=mxgraph.flowchart.document2;whiteSpace=wrap;size=0.25;" vertex="1" parent="1">
          <mxGeometry x="313.25" y="430" width="234.5" height="60" as="geometry" />
        </mxCell>
        <mxCell id="kORwje1YK65I4W1ww44p-9" value="" style="edgeStyle=orthogonalEdgeStyle;rounded=0;orthogonalLoop=1;jettySize=auto;html=1;" edge="1" parent="1" source="kORwje1YK65I4W1ww44p-4" target="kORwje1YK65I4W1ww44p-5">
          <mxGeometry relative="1" as="geometry" />
        </mxCell>
        <mxCell id="kORwje1YK65I4W1ww44p-4" value="print&amp;nbsp;&quot;2. Craft Stick: 1 Wood&quot;" style="strokeWidth=2;html=1;shape=mxgraph.flowchart.document2;whiteSpace=wrap;size=0.25;" vertex="1" parent="1">
          <mxGeometry x="340.5" y="525" width="180" height="60" as="geometry" />
        </mxCell>
        <mxCell id="kORwje1YK65I4W1ww44p-5" value="print&amp;nbsp;&quot;3. Craft Iron Ingot: 3 Iron Ore&quot;" style="strokeWidth=2;html=1;shape=mxgraph.flowchart.document2;whiteSpace=wrap;size=0.25;" vertex="1" parent="1">
          <mxGeometry x="325.5" y="620" width="210" height="60" as="geometry" />
        </mxCell>
      </root>
    </mxGraphModel>
  </diagram>
</mxfile>
